PathFileType	4	(X/Y/Z)	s06c0102.trc
DataRate	CameraRate	NumFrames	NumMarkers	Units	OrigDataRate	OrigDataStartFrame	OrigNumFrames
200	200	4	48	mm	200	500	2000
Frame#	Time	racr			lacr			c7			jug			rlel			rdr			llel			ldr			s2			lic			ric			lasi			rasi			rpsi			lpsi			rgt			lgt			rth1			rth2			rth3			rth4			rlfc			rmfc			rsh1			rsh2			rsh3			rsh4			rlmal			rcal			rtoe			rmt5			lth1			lth2			lth4			lth3			llfc			lmfc			llmal			lcal			lmt5			lsh1			lsh2			lsh3			lsh4			ltoe			SBIKE			LBIKE			RBIKE			
		X1	Y1	Z1	X2	Y2	Z2	X3	Y3	Z3	X4	Y4	Z4	X5	Y5	Z5	X6	Y6	Z6	X7	Y7	Z7	X8	Y8	Z8	X9	Y9	Z9	X10	Y10	Z10	X11	Y11	Z11	X12	Y12	Z12	X13	Y13	Z13	X14	Y14	Z14	X15	Y15	Z15	X16	Y16	Z16	X17	Y17	Z17	X18	Y18	Z18	X19	Y19	Z19	X20	Y20	Z20	X21	Y21	Z21	X22	Y22	Z22	X23	Y23	Z23	X24	Y24	Z24	X25	Y25	Z25	X26	Y26	Z26	X27	Y27	Z27	X28	Y28	Z28	X29	Y29	Z29	X30	Y30	Z30	X31	Y31	Z31	X32	Y32	Z32	X33	Y33	Z33	X34	Y34	Z34	X35	Y35	Z35	X36	Y36	Z36	X37	Y37	Z37	X38	Y38	Z38	X39	Y39	Z39	X40	Y40	Z40	X41	Y41	Z41	X42	Y42	Z42	X43	Y43	Z43	X44	Y44	Z44	X45	Y45	Z45	X46	Y46	Z46	X47	Y47	Z47	X48	Y48	Z48	
500	2.5000	504.309577	1295.980989	-55.682627	512.420653	1291.465162	-358.262569	491.163662	1372.406737	-211.207489	508.755162	1210.708732	-207.799470	528.922994	1047.863967	52.094283	718.086775	920.956718	-44.589069	487.486728	1034.192622	-452.713170	702.803445	935.015499	-402.089446	-36.029683	1135.597300	-188.298502	123.888875	1130.395237	-374.299676	123.710010	1095.238040	-41.579753	140.643338	1082.046051	-340.561567	155.372475	1059.731480	-80.777927	-1.198426	1173.903325	-162.936337	-9.499774	1174.981091	-222.513803	91.854282	1000.563375	-23.439954	98.550927	1091.642942	-397.968113	176.529705	894.190368	-21.864875	238.105184	828.994202	-37.128178	257.953767	745.303550	-48.986869	266.051933	848.909643	-53.163823	281.494370	644.422948	-67.295265	259.887598	623.716642	-177.631331	230.748739	536.250296	-36.575860	206.862713	454.081944	-56.054422	148.941797	388.425374	-52.866572	223.647433	447.551712	-91.750621	98.452807	320.861856	-55.866313	36.109242	338.540497	-102.904001	216.580248	127.587560	-94.991944	132.792482	184.510742	-29.887687	174.805813	1009.509958	-411.354191	260.674310	994.734237	-404.615534	275.085755	1025.837652	-387.766232	329.693941	937.749464	-404.790485	406.519731	847.687343	-376.564643	402.738497	829.140273	-258.179011	205.706981	528.964195	-377.506214	129.367559	493.409071	-330.581712	323.884099	470.808997	-408.022023	356.765779	750.181890	-399.341020	327.491480	669.328027	-382.288596	262.177526	608.600290	-385.368267	348.299365	659.510699	-350.503203	410.014979	484.015661	-350.736634	-202.992019	866.954402	-214.673945	-48.981190	79.873014	-414.545676	-48.918060	79.854553	-17.024275	
501	2.5050	503.641428	1295.743388	-55.993376	510.747626	1291.540121	-358.516216	489.842469	1371.998656	-211.182101	507.825271	1210.344358	-208.027806	528.502770	1047.509160	52.163187	717.568247	920.917853	-44.021553	485.720929	1033.692410	-452.544486	701.834278	935.246814	-402.166572	-37.664293	1134.642745	-187.697105	122.739586	1129.093382	-373.940984	121.883747	1093.989353	-40.603507	139.329455	1080.687071	-340.100709	153.530104	1059.672587	-79.168288	-2.515697	1172.887777	-162.457705	-11.055063	1173.936414	-222.221200	90.339502	1000.062724	-22.331239	96.986497	1089.636563	-397.882396	176.857142	895.509449	-22.056855	239.036785	831.061177	-37.927506	260.099293	747.660141	-49.652141	266.827616	851.289934	-53.801725	283.626787	646.502312	-67.891097	261.491237	626.218980	-178.755075	230.333471	539.095893	-37.598198	204.963920	457.389024	-56.619181	145.676155	393.078482	-53.289282	221.890067	450.321195	-92.464728	93.839770	326.443330	-56.124695	31.441891	344.883966	-103.130414	209.614464	131.958303	-94.939382	126.453621	189.816529	-29.971811	172.658910	1006.232027	-411.014696	258.305452	990.350255	-404.514750	273.135436	1021.201057	-387.982309	326.474381	932.307465	-404.470729	402.459199	841.604223	-376.595422	398.994883	823.257256	-257.907765	208.766298	519.731211	-377.800121	134.107862	481.565437	-330.385182	328.623354	464.787874	-408.117871	354.890704	743.209797	-399.059808	327.519931	661.832323	-382.095398	263.577138	599.777433	-385.169109	348.677699	652.459344	-350.378527	414.618075	481.070158	-351.125297	-203.031384	866.871953	-214.596643	-48.990919	79.848152	-414.531136	-48.953361	79.807823	-17.013123	
502	2.5100	503.054069	1295.446233	-56.264254	509.164373	1291.545764	-358.869407	488.580109	1371.581175	-211.207566	506.886786	1209.824300	-208.031732	528.145292	1047.216808	52.227469	717.215643	920.867934	-43.899917	484.126333	1033.198981	-452.355797	700.923647	935.424846	-402.300981	-39.017554	1133.779438	-187.165592	121.794385	1127.730489	-373.506175	120.230572	1092.812814	-39.588517	138.141218	1079.226708	-339.582971	151.888558	1059.043730	-78.005690	-3.440010	1171.826892	-161.704390	-12.344778	1172.954320	-221.881703	88.762641	999.625307	-21.292262	95.629976	1087.552831	-397.856058	177.121687	896.882489	-22.057513	239.936063	833.132781	-38.346246	262.083397	750.087703	-50.299775	267.650997	853.597860	-53.922223	285.043437	648.630342	-68.764684	263.278984	628.754068	-179.493522	230.172105	542.016204	-38.199938	203.152074	460.857289	-57.099024	142.489711	397.770212	-53.732621	220.172714	453.398516	-93.044574	89.235336	332.219474	-56.402369	27.049877	351.412443	-103.304862	202.944504	136.661548	-94.850585	120.371323	195.415276	-29.928179	170.733447	1003.031361	-410.752192	256.129473	985.883754	-404.413984	271.552901	1016.654256	-388.305356	323.447247	926.869566	-404.143369	398.526562	835.595136	-376.861758	396.992116	814.185571	-261.796688	212.276602	509.868231	-377.870491	138.798677	470.075124	-330.511057	333.482442	458.843314	-408.522799	353.276678	736.266775	-399.050094	327.740088	654.299962	-381.982192	265.207763	590.835781	-384.946748	349.179296	645.329069	-350.285909	418.927532	477.462535	-351.575581	-203.063466	866.783481	-214.549137	-49.019209	79.746145	-414.567881	-48.989317	79.781457	-17.005926	
503	2.5150	502.429209	1295.087875	-56.692436	507.743962	1291.421319	-359.434853	487.412135	1371.124658	-211.179427	506.035184	1209.467020	-208.169632	527.824041	1046.951509	52.210582	716.903189	920.831567	-43.771695	482.749239	1032.624526	-452.151547	700.086143	935.572604	-402.390791	-40.374960	1132.992934	-186.720854	121.063320	1126.195075	-373.164219	118.824927	1091.921504	-38.782259	137.159866	1077.558077	-339.206766	150.113920	1058.400406	-77.040401	-4.623162	1171.148793	-161.462523	-13.284596	1172.025026	-221.103057	87.367998	999.197606	-20.309391	94.508929	1085.521995	-397.787529	177.166988	897.935817	-21.989350	240.781645	835.210236	-38.568660	263.879907	752.458880	-50.729861	268.125746	856.202700	-54.057675	286.730458	650.841756	-69.325574	265.216745	631.272010	-180.021642	230.183011	545.089298	-38.641530	200.719934	464.255117	-58.234156	139.521251	402.635931	-54.079591	218.356365	456.277835	-93.659749	84.976481	338.321341	-56.564624	22.937798	358.189500	-103.461911	196.599156	141.660409	-94.838884	114.556751	201.219891	-29.943660	169.148122	1000.020179	-410.702603	254.237155	981.619766	-404.262518	270.170306	1012.191712	-388.498141	320.725628	921.602718	-403.857424	394.776629	829.531413	-377.001860	394.696568	807.442648	-262.382148	215.627252	500.331107	-377.741652	143.247346	458.791964	-330.249049	338.129194	452.650122	-408.766098	351.789729	729.178104	-398.889687	328.092137	646.735758	-381.714526	266.989188	582.152677	-384.380514	349.757663	638.164951	-350.056304	423.145151	473.301815	-351.774284	-203.107353	866.730615	-214.505574	-49.052566	79.714884	-414.554711	-48.996713	79.761999	-17.002984	
